<svg width="12" height="12" fill="none" xmlns="http://www.w3.org/2000/svg"><g clip-path="url(#clip0)"><path d="M11.753 3.12a1.504 1.504 0 00-1.058-1.058C9.756 1.805 6 1.805 6 1.805s-3.756 0-4.695.247C.8 2.19.385 2.605.247 3.119 0 4.06 0 6.006 0 6.006s0 1.957.247 2.886c.139.514.544.92 1.058 1.058.949.257 4.695.257 4.695.257s3.756 0 4.695-.248c.514-.138.92-.543 1.058-1.057C12 7.962 12 6.016 12 6.016s.01-1.958-.247-2.897z" fill="#BCBCBC"/><path d="M4.804 7.805l3.123-1.8-3.123-1.798v3.598z" fill="#272727"/></g><defs><clipPath id="clip0"><path fill="#fff" d="M0 0h12v12H0z"/></clipPath></defs></svg>